<svg xmlns="http://www.w3.org/2000/svg" width="590.75" height="142.35000610351562" style=""><rect id="backgroundrect" width="100%" height="100%" x="0" y="0" fill="none" stroke="none"/><defs><style>.cls-1{fill:#fff;}.cls-2{fill:#44a13f;}.cls-3{fill:#124e91;}.cls-4{fill:#ed1b2f;}</style></defs><title>Parque_Arauco_Logo</title><g class="currentLayer" style=""><title>Layer 1</title><g class="" id="svg_19"><path class="cls-1" d="M199.89632446964902,47.51177351464506 H211.2078273199791 c8.649972767899465,0 14.261949027235048,4.3775165829450735 14.261949027235048,13.0625094835081 S219.01731690395312,73.66305758115891 210.77883069485048,73.66305758115891 h-6.338644012104466 v19.908945419234193 h-4.543862213096986 zm4.543862213096986,22.15898894286796 h3.1605669728863433 c6.872701035223765,0 13.325160478484806,-0.7967080180960047 13.325160478484806,-9.096479459359863 c0,-5.804586988985167 -3.3006475035405853,-9.105234492525753 -9.105234492525753,-9.105234492525753 h-7.3804929588453945 z" id="svg_20"/><path class="cls-1" d="M248.41671827501222,88.13512740437532 h-0.13132549748835223 c-1.8473119980028208,4.009805189977688 -6.5224997085881595,6.1985634814502255 -10.672385429220089,6.1985634814502255 c-9.57800628348382,0 -11.083871988016927,-6.461214476426928 -11.083871988016927,-9.499210984990809 c0,-11.26772768450062 12.003150470435394,-11.810539740785808 20.705653437330195,-11.810539740785808 h0.8054630512618937 V71.32546372586624 c0,-5.7433017568239375 -2.0574327939841845,-8.641217734733576 -7.6606540201538795,-8.641217734733576 A17.84275759208412,17.84275759208412 0 0 0 230.46890028493743,65.45083647155396 V61.406011148912704 a26.737871288628508,26.737871288628508 0 0 1 9.893187477455866,-2.3025737226291088 c8.299771441263859,0 11.801784707619918,3.764664261332763 11.801784707619918,12.53720749355469 V86.48042613602209 a48.85308506566702,48.85308506566702 0 0 0 0.3239362271379384,7.065311764873349 H248.41671827501222 zm-0.37646642613328246,-11.539133712643213 h-1.19068451056106 c-7.187882229195812,0 -15.759059698602265,0.7179127196029922 -15.759059698602265,8.115915744780166 c0,4.3775165829450735 3.1605669728863433,6.058482950795982 7.004026532712118,6.058482950795982 c9.761861979967515,0 9.971982775948877,-8.509892237245225 9.971982775948877,-12.134475967923743 z" id="svg_21"/><path class="cls-1" d="M258.7826775434262,67.42947396704513 A58.597436979302756,58.597436979302756 0 0 0 258.4850064157859,59.91765551071138 h4.15864075379782 v6.452459443261039 h0.13132549748835223 c1.505865704533106,-3.7559092281668747 4.3775165829450735,-7.249167461357041 8.632462701567684,-7.249167461357041 a12.353351797070998,12.353351797070998 0 0 1 2.915426044241419,0.3939764924650614 v4.3775165829450735 a11.110137087514596,11.110137087514596 0 0 0 -3.0467515417297713,-0.3939764924650614 c-6.58378494074939,0 -8.378566739756872,7.3804929588453945 -8.378566739756872,13.438975909641375 v16.63456301519128 h-4.14113068746604 z" id="svg_22"/><path class="cls-1" d="M302.8905346331808,107.37869030300187 H298.7581589788806 V87.7936811109056 h-0.13132549748835223 c-2.0399227276524043,4.3775165829450735 -5.253019899534088,6.540009774919939 -10.506039799068176,6.540009774919939 c-9.236559990014106,0 -13.841707435272323,-7.651898986987988 -13.841707435272323,-17.606371696605084 c0,-10.217123704593803 3.966030024148237,-17.606371696605084 13.841707435272323,-17.606371696605084 c7.1265969970345795,0 9.700576747806283,5.069164203050396 10.506039799068176,6.2686037467773446 H298.7581589788806 V59.91765551071138 h4.14113068746604 zm-14.104358430249027,-16.63456301519128 c7.389247992011283,0 9.963227742782987,-7.879529849301132 9.963227742782987,-14.008053065424235 s-2.573979750771703,-14.008053065424235 -9.963227742782987,-14.008053065424235 c-7.879529849301132,0 -9.954472709617097,7.5118184563337485 -9.954472709617097,14.008053065424235 s2.0399227276524043,14.008053065424235 9.954472709617097,14.008053065424235 " id="svg_23"/><path class="cls-1" d="M335.8794996022548,85.63118791893075 c0,2.573979750771703 0,5.200489700538747 0.25389596181081486,7.879529849301132 H332.11483534092207 V87.5397851490948 H332.02728500926315 c-1.3920502733765336,3.037996508563881 -3.8959897588211154,6.793905736730754 -10.891261258367342,6.793905736730754 c-8.30852647442975,0 -11.460338414150202,-5.541935994008464 -11.460338414150202,-12.922428952853856 V59.91765551071138 h4.1498857206319295 V80.35190291989898 c0,6.3298889789385795 2.2325334573019875,10.418489467409275 7.975835214125924,10.418489467409275 c7.590613754826757,0 9.954472709617097,-6.662580239242403 9.954472709617097,-12.257046432246206 V59.91765551071138 h4.16739578696371 z" id="svg_24"/><path class="cls-1" d="M365.55030700145653,92.47762385465683 a27.534579306724513,27.534579306724513 0 0 1 -9.770617013133405,1.8560670311687115 c-11.136402187012271,0 -15.286287907644196,-7.520573489499636 -15.286287907644196,-17.606371696605084 c0,-10.295919003086812 5.673261491496816,-17.606371696605084 14.17439869557615,-17.606371696605084 c9.490455951824918,0 13.386445710646033,7.643143953822098 13.386445710646033,16.63456301519128 v2.1012079598136353 H345.0372642937759 c0,7.13535203020047 3.8171944603281047,12.869898753858516 11.075116954851037,12.869898753858516 a21.58115675391921,21.58115675391921 0 0 0 9.437925752829576,-2.512694518610472 zM363.54540440646764,74.34595016809834 c0,-5.857117187980508 -2.3638589547903397,-11.661704176965676 -8.579932502572344,-11.661704176965676 s-9.884432444289974,6.128523216123103 -9.884432444289974,11.661704176965676 z" id="svg_25"/><path class="cls-1" d="M385.9845544106441,47.51177351464506 h10.435999533741056 l18.052878388065484,46.033964386250396 H404.247553594691 l-6.513744675422269,-17.80773745942056 l-16.10926102523787,7.249167461357041 l-4.018560223143577,10.558569998063518 H368.05424648690104 zm5.0866742693821765,9.236559990014106 h-0.14008053065424383 l-6.6538252060765135,18.98966693681573 h13.456485975973155 z" id="svg_26"/><path class="cls-1" d="M416.5221100932689,59.58496425040755 h7.835754683471681 v7.70442918598333 h0.14008053065424383 c0.40273152563094683,-3.151811939720453 4.018560223143577,-8.509892237245225 9.297845222175338,-8.509892237245225 a9.630536482479162,9.630536482479162 0 0 1 2.6965502150941667,0.26265099497670447 V67.95477595699853 a8.965153961871511,8.965153961871511 0 0 0 -3.9485199578164565,-0.726667752768893 c-7.187882229195812,0 -7.187882229195812,8.973908995037402 -7.187882229195812,13.841707435272323 v12.47592226139346 H416.5221100932689 z" id="svg_27"/><path class="cls-1" d="M440.18696474067,61.35348094991736 A30.511290583127163,30.511290583127163 0 0 1 451.9712393819581,58.779501199145656 c10.348449202082154,0 14.638415453368326,4.298721284452062 14.638415453368326,14.314479226230391 v4.3775165829450735 c0,3.4232179678630477 0.05253019899534178,5.997197718634751 0.13132549748835223,8.501137204079335 s0.19261072964958317,4.946593738727933 0.3939764924650614,7.590613754826757 h-7.7832244844763405 a42.024159196272706,42.024159196272706 0 0 1 -0.40273152563094683,-5.069164203050396 h-0.11381543115657203 c-2.0574327939841845,3.7559092281668747 -6.478724542758709,5.857117187980508 -10.506039799068176,5.857117187980508 c-5.979687652302971,0 -11.86306993978115,-3.6333387638444115 -11.86306993978115,-10.094553240271338 c0,-5.0866742693821765 2.4426542532833513,-8.037120446287155 5.804586988985167,-9.691821714640394 s7.7131842191492215,-1.969882462325283 11.381543115657191,-1.969882462325283 h4.876553473400812 c0,-5.471895728681342 -2.451409286449241,-7.319207726684163 -7.643143953822098,-7.319207726684163 a17.75520726042522,17.75520726042522 0 0 0 -10.506039799068176,3.6946239960056415 zm10.357204235248043,26.518995459481257 a7.468043290504295,7.468043290504295 0 0 0 6.189808448284334,-3.037996508563881 c1.4533355055377644,-1.917352263329942 1.8560670311687115,-4.3775165829450735 1.8560670311687115,-7.004026532712118 h-3.8347045266598867 c-3.9485199578164565,0 -9.823147212128747,0.6653825206076515 -9.823147212128747,5.883382287478178 c0,2.897915977909639 2.4426542532833513,4.1498857206319295 5.611976259335584,4.1498857206319295 " id="svg_28"/><path class="cls-1" d="M503.231958568245,93.54573790089543 H494.87090189481984 V88.92308038930545 h-0.13132549748835223 a14.17439869557615,14.17439869557615 0 0 1 -11.162667286509937,5.4106104965201105 c-8.037120446287155,0 -11.530378679477325,-5.673261491496816 -11.530378679477325,-13.325160478484806 V59.58496425040755 H480.8628488293956 V77.71663793696604 c0,4.1498857206319295 0.06128523216123108,9.770617013133405 5.7433017568239375,9.770617013133405 c6.391174211099807,0 7.77446945131045,-6.933986267384996 7.77446945131045,-11.2852377508324 v-16.63456301519128 h8.842583497549048 z" id="svg_29"/><path class="cls-1" d="M531.0729640357756,66.90417197709172 a13.342670544816585,13.342670544816585 0 0 0 -6.014707784966531,-1.2607247758881812 c-5.471895728681342,0 -8.965153961871511,4.3775165829450735 -8.965153961871511,10.759935760878989 c0,6.259848713611455 2.9592012100708702,11.075116954851037 9.149009658355203,11.075116954851037 A18.621955543848344,18.621955543848344 0 0 0 532.0447727171895,85.92010401340511 l0.40273152563094683,7.319207726684163 a28.6989987177879,28.6989987177879 0 0 1 -8.842583497549048,1.1206442452339391 c-11.153912253344048,0 -16.74837844634785,-7.5818587216608675 -16.74837844634785,-17.930307923743023 c0,-9.831902245294636 5.8133420221510566,-17.623881762936865 16.406932152878134,-17.623881762936865 a28.77779401628091,28.77779401628091 0 0 1 8.588687535738234,1.1381543115657191 z" id="svg_30"/><path class="cls-1" d="M550.5791779293788,58.779501199145656 C560.6737311696502,58.779501199145656 568.4131804882971,65.58216196904229 568.4131804882971,76.79735945454757 c0,9.761861979967515 -6.540009774919939,17.510066331780294 -17.798982426254668,17.510066331780294 s-17.75520726042522,-7.77446945131045 -17.75520726042522,-17.510066331780294 c0,-11.215197485505279 7.7131842191492215,-18.01785825540192 17.75520726042522,-18.01785825540192 m0,28.6989987177879 c6.785150703564864,0 8.562422436240562,-6.0672379839618715 8.562422436240562,-11.740499475458687 c0,-5.253019899534088 -2.7665904804212866,-10.094553240271338 -8.562422436240562,-10.094553240271338 s-8.509892237245225,5.016634004055056 -8.509892237245225,10.094553240271338 c0,5.594466193003803 1.7510066331780307,11.740499475458687 8.509892237245225,11.740499475458687 " id="svg_31"/><path class="cls-1" d="M559.4567815595915,47.5555486804745 a9.184029791018764,9.184029791018764 0 1 1 9.201539857350545,9.192784824184654 a9.201539857350545,9.201539857350545 0 0 1 -9.201539857350545,-9.192784824184654 m16.13552612473554,0 c0,-4.307476317617952 -3.1167918070568925,-7.406758058343065 -6.933986267384996,-7.406758058343065 s-7.004026532712118,3.0992817407251123 -7.004026532712118,7.406758058343065 s3.108036773891002,7.406758058343065 7.004026532712118,7.406758058343065 s6.933986267384996,-3.108036773891002 6.933986267384996,-7.406758058343065 m-10.506039799068176,-5.253019899534088 h3.878479692489335 c2.4951844522786923,0 3.843459559825774,0.875503316589011 3.843459559825774,3.0467515417297713 c0,1.7510066331780307 -1.015583847243257,2.626509949767044 -2.731570347757726,2.801610613084847 l2.810365646250737,4.5526172462628764 h-1.9961475618229514 L568.2030596923157,48.273461400077494 h-1.17317444422928 v4.4825769809357565 h-1.9348623296617222 zm1.9348623296617222,4.447556848272195 h1.7510066331780307 c1.129399278399829,0 2.1274730593113063,-0.14883556382013272 2.1274730593113063,-1.5408858371966776 c0,-1.2344596763905107 -1.1206442452339391,-1.4358254392059826 -2.1187180261454155,-1.4358254392059826 h-1.7510066331780307 z" id="svg_32"/></g><g class=""><path class="cls-1" d="M136.21754756047932,70.14959013629223 A60.62578080713749,60.62578080713749 0 1 1 75.60028519942966,9.523809329154755 a60.61726236104965,60.61726236104965 0 0 1 60.61726236104965,60.62578080713749 " id="svg_14"/><path class="cls-2" d="M130.97870321645942,76.41916645694045 c-0.8944368392229081,-0.06814756870269777 -1.797392124533653,-0.11073979914188484 -2.7003474098443982,-0.11073979914188484 A40.73520919203758,40.73520919203758 0 0 0 88.22462230160443,124.42061016190317 a55.77878498315812,55.77878498315812 0 0 0 42.78815469920635,-48.00144370496273 " id="svg_15"/><path class="cls-2" d="M23.43332135751453,76.30842665779856 c-1.0733242070674895,0 -2.146648414134979,0.05962912261486179 -3.2114541751146315,0.14481358349323464 A55.76174809098243,55.76174809098243 0 0 0 63.52112864687648,124.52283151495722 a40.718172299861905,40.718172299861905 0 0 0 -40.03669661283493,-48.23144174933433 " id="svg_16"/><path class="cls-3" d="M23.43332135751453,70.33699595022466 A46.45108651697636,46.45108651697636 0 0 1 36.43247008755412,72.1769803051975 a39.26151801884175,39.26151801884175 0 0 1 78.36970400810242,0.1618504756689072 A46.289236041307454,46.289236041307454 0 0 1 128.26131891443936,70.33699595022466 c1.0307319766283034,0 2.0444270610809325,0 3.0410852533578874,0.11073979914188484 a2.402201796770096,2.402201796770096 0 0 0 0,-0.3407378435134888 a55.74471119880676,55.74471119880676 0 0 0 -111.48090395152569,0 c0,0.12777669131755817 0,0.2385164904594458 0,0.3577747356891669 c1.1755455601215363,-0.08518446087837314 2.3596095663309096,-0.12777669131755817 3.5692289108037953,-0.12777669131755817 " id="svg_17"/><path class="cls-4" d="M81.53764212265222,117.06919118809965 a46.851453483104706,46.851453483104706 0 0 1 27.335693495869638,-42.515564424395556 a33.28156886518001,33.28156886518001 0 0 0 -66.54610083818436,-0.2214795982837677 A46.78330591440201,46.78330591440201 0 0 1 70.1655165953895,117.06919118809965 a46.65552922308445,46.65552922308445 0 0 1 -0.7581417018175126,8.441780073046685 a56.93729365110398,56.93729365110398 0 0 0 6.192910305857658,0.3407378435134888 a56.289891748428346,56.289891748428346 0 0 0 6.695498625040055,-0.4003669661283551 a46.76626902222633,46.76626902222633 0 0 1 -0.7581417018175126,-8.382150950431823 " id="svg_18"/></g></g></svg>