<svg xmlns="http://www.w3.org/2000/svg" viewBox="0 0 590.75 142.35"><defs><style>.cls-1{fill:#231f20;}.cls-2{fill:#fff;}.cls-3{fill:#44a13f;}.cls-4{fill:#124e91;}.cls-5{fill:#ed1b2f;}</style></defs><title>PArauco_H_Black</title><g id="Layer_2" data-name="Layer 2"><g id="Capa_1" data-name="Capa 1"><path class="cls-1" d="M159.08,48.13H172c9.88,0,16.29,5,16.29,14.92S180.92,78,171.51,78h-7.24v22.74h-5.19Zm5.19,25.31h3.61c7.85,0,15.22-.91,15.22-10.39,0-6.63-3.77-10.4-10.4-10.4h-8.43Z"/><path class="cls-1" d="M214.5,94.53h-.15c-2.11,4.58-7.45,7.08-12.19,7.08-10.94,0-12.66-7.38-12.66-10.85,0-12.87,13.71-13.49,23.65-13.49h.92V75.33c0-6.56-2.35-9.87-8.75-9.87A20.38,20.38,0,0,0,194,68.62V64a30.54,30.54,0,0,1,11.3-2.63c9.48,0,13.48,4.3,13.48,14.32V92.64a55.8,55.8,0,0,0,.37,8.07H214.5Zm-.43-13.18h-1.36c-8.21,0-18,.82-18,9.27,0,5,3.61,6.92,8,6.92,11.15,0,11.39-9.72,11.39-13.86Z"/><path class="cls-1" d="M226.34,70.88A66.93,66.93,0,0,0,226,62.3h4.75v7.37h.15c1.72-4.29,5-8.28,9.86-8.28a14.11,14.11,0,0,1,3.33.45v5a12.69,12.69,0,0,0-3.48-.45c-7.52,0-9.57,8.43-9.57,15.35v19h-4.73Z"/><path class="cls-1" d="M276.72,116.51H272V94.14h-.15c-2.33,5-6,7.47-12,7.47-10.55,0-15.81-8.74-15.81-20.11,0-11.67,4.53-20.11,15.81-20.11,8.14,0,11.08,5.79,12,7.16H272V62.3h4.73Zm-16.11-19c8.44,0,11.38-9,11.38-16s-2.94-16-11.38-16c-9,0-11.37,8.58-11.37,16s2.33,16,11.37,16"/><path class="cls-1" d="M314.4,91.67c0,2.94,0,5.94.29,9H310.1V93.85H310c-1.59,3.47-4.45,7.76-12.44,7.76-9.49,0-13.09-6.33-13.09-14.76V62.3h4.74V85.64c0,7.23,2.55,11.9,9.11,11.9,8.67,0,11.37-7.61,11.37-14V62.3h4.76Z"/><path class="cls-1" d="M348.29,99.49a31.45,31.45,0,0,1-11.16,2.12c-12.72,0-17.46-8.59-17.46-20.11,0-11.76,6.48-20.11,16.19-20.11,10.84,0,15.29,8.73,15.29,19v2.4H324.86c0,8.15,4.36,14.7,12.65,14.7a24.65,24.65,0,0,0,10.78-2.87ZM346,78.78c0-6.69-2.7-13.32-9.8-13.32s-11.29,7-11.29,13.32Z"/><path class="cls-1" d="M371.63,48.13h11.92l20.62,52.58H392.49l-7.44-20.34-18.4,8.28-4.59,12.06H351.15Zm5.81,10.55h-.16l-7.6,21.69h15.37Z"/><path class="cls-1" d="M406.51,61.92h8.95v8.8h.16c.46-3.6,4.59-9.72,10.62-9.72a11,11,0,0,1,3.08.3V71.48a10.24,10.24,0,0,0-4.51-.83c-8.21,0-8.21,10.25-8.21,15.81v14.25H406.51Z"/><path class="cls-1" d="M433.54,63.94A34.85,34.85,0,0,1,447,61c11.82,0,16.72,4.91,16.72,16.35v5c0,3.91.06,6.85.15,9.71s.22,5.65.45,8.67h-8.89a48,48,0,0,1-.46-5.79h-.13c-2.35,4.29-7.4,6.69-12,6.69-6.83,0-13.55-4.15-13.55-11.53,0-5.81,2.79-9.18,6.63-11.07s8.81-2.25,13-2.25h5.57c0-6.25-2.8-8.36-8.73-8.36a20.28,20.28,0,0,0-12,4.22Zm11.83,30.29a8.53,8.53,0,0,0,7.07-3.47c1.66-2.19,2.12-5,2.12-8h-4.38c-4.51,0-11.22.76-11.22,6.72,0,3.31,2.79,4.74,6.41,4.74"/><path class="cls-1" d="M505.55,100.71H496V95.43h-.15a16.19,16.19,0,0,1-12.75,6.18c-9.18,0-13.17-6.48-13.17-15.22V61.92H480V82.63c0,4.74.07,11.16,6.56,11.16,7.3,0,8.88-7.92,8.88-12.89v-19h10.1Z"/><path class="cls-1" d="M537.35,70.28a15.24,15.24,0,0,0-6.87-1.44c-6.25,0-10.24,5-10.24,12.29,0,7.15,3.38,12.65,10.45,12.65A21.27,21.27,0,0,0,538.46,92l.46,8.36a32.78,32.78,0,0,1-10.1,1.28c-12.74,0-19.13-8.66-19.13-20.48,0-11.23,6.64-20.13,18.74-20.13a32.87,32.87,0,0,1,9.81,1.3Z"/><path class="cls-1" d="M559.63,61C571.16,61,580,68.77,580,81.58c0,11.15-7.47,20-20.33,20s-20.28-8.88-20.28-20c0-12.81,8.81-20.58,20.28-20.58m0,32.78c7.75,0,9.78-6.93,9.78-13.41,0-6-3.16-11.53-9.78-11.53s-9.72,5.73-9.72,11.53c0,6.39,2,13.41,9.72,13.41"/><path class="cls-1" d="M569.77,48.18a10.49,10.49,0,1,1,10.51,10.5,10.51,10.51,0,0,1-10.51-10.5m18.43,0c0-4.92-3.56-8.46-7.92-8.46s-8,3.54-8,8.46,3.55,8.46,8,8.46,7.92-3.55,7.92-8.46m-12-6h4.43c2.85,0,4.39,1,4.39,3.48,0,2-1.16,3-3.12,3.2l3.21,5.2h-2.28L579.76,49h-1.34v5.12h-2.21Zm2.21,5.08h2c1.29,0,2.43-.17,2.43-1.76,0-1.41-1.28-1.64-2.42-1.64h-2Z"/><path class="cls-2" d="M142.34,71.17A71.17,71.17,0,1,1,71.18,0a71.16,71.16,0,0,1,71.16,71.17"/><path class="cls-3" d="M136.19,78.53c-1.05-.08-2.11-.13-3.17-.13A47.82,47.82,0,0,0,86,134.88a65.48,65.48,0,0,0,50.23-56.35"/><path class="cls-3" d="M9.94,78.4c-1.26,0-2.52.07-3.77.17A65.46,65.46,0,0,0,57,135a47.8,47.8,0,0,0-47-56.62"/><path class="cls-4" d="M9.94,71.39A54.53,54.53,0,0,1,25.2,73.55a46.09,46.09,0,0,1,92,.19A54.34,54.34,0,0,1,133,71.39c1.21,0,2.4,0,3.57.13a2.82,2.82,0,0,0,0-.4,65.44,65.44,0,0,0-130.87,0c0,.15,0,.28,0,.42,1.38-.1,2.77-.15,4.19-.15"/><path class="cls-5" d="M78.15,126.25a55,55,0,0,1,32.09-49.91,39.07,39.07,0,0,0-78.12-.26A54.92,54.92,0,0,1,64.8,126.25a54.77,54.77,0,0,1-.89,9.91,66.84,66.84,0,0,0,7.27.4,66.08,66.08,0,0,0,7.86-.47,54.9,54.9,0,0,1-.89-9.84"/></g></g></svg>